# xmcd
#
# Track frame offsets: 
#        150
#        20309
#        39603
#        57490
#        79107
#        103559
#        122233
#        139783
#        159852
#        175764
#        195383
#        215542
#        234951
#        257670
#        281652
#        305897
#
# Disc length: 4326 seconds
#
# Revision: 2
# Processed by: cddbd v1.5.2PL0 Copyright (c) Steve Scherf et al.
# Submitted via: ExactAudioCopy v1.0b3
#
DISCID=da10e410
DTITLE=Michael Bolton - Best Ballads 1985-1998
DYEAR=1998
DGENRE=Pop
TTITLE0=Soul Provider
TTITLE1=How I Am Supposed
TTITLE2=How Can We Be Lovers
TTITLE3=Can't Get Close Enough To You
TTITLE4=Let There Be Love
TTITLE5=Pleasure Or Pain
TTITLE6=When A Man Loves A Woman
TTITLE7=Missing You Now
TTITLE8=Steels Bars
TTITLE9=The Best Of Love
TTITLE10=Whenever I Remember Loving You
TTITLE11=When There Are No Words
TTITLE12=Said I Loved You...But I Lied
TTITLE13=Can I Touch You...There?
TTITLE14=I Promise You
TTITLE15=A Love So Beautiful
EXTD=
EXTT0=
EXTT1=
EXTT2=
EXTT3=
EXTT4=
EXTT5=
EXTT6=
EXTT7=
EXTT8=
EXTT9=
EXTT10=
EXTT11=
EXTT12=
EXTT13=
EXTT14=
EXTT15=
PLAYORDER=
